**ABCDEFGHIJKLMNOPQRSTUVWXYZabcdefghijklmnopqrstuvwxyz**************************
**PARASOLID !"#$%&'()*+,-./:;<=>?@[\]^_`{|}~0123456789**************************
**PART1;
MC=unknown;
MC_MODEL=unknown;
MC_ID=unknown;
OS=unknown;
OS_RELEASE=unknown;
FRU=sdl_parasolid_customer_support;
APPL=ONSHAPE BY PTC INC, 1.216;
SITE=unknown;
USER=unknown;
FORMAT=text;
GUISE=transmit;
KEY=/vol/tmp/translate-7474602464667989443/6a0e765aa363ccc63418fb02.x_t;
FILE=/vol/tmp/translate-7474602464667989443/6a0e765aa363ccc63418fb02.x_t;
DATE=unknown;
**PART2;
SCH=SCH_3701212_37102;
USFLD_SIZE=0;
**PART3;
**END_OF_HEADER*****************************************************************
T51 : TRANSMIT FILE created by modeller version 370121217 SCH_3701212_371020 12
 1 616 2 3 0 0 0 0 0 0 0 1e3 1e-8 0 0 0 1 0 1 1 4 0 5 6 7 0 0 8 9 10 0 0 0 0 0 0
 0 81 1 2 616 11 1 12 0 0 0 13 70 3 0 4 T1 0 0 12 20 1 14 14 13 4 109 0 1 0 15 0
 0 16 0 50 5 570 0 17 18 0 0 +-.007 -.013 .0121243556529821 0 1 0 -1 0 0 31 6 29
6 0 1 19 0 20 +0 .003 0 0 -1 0 1 0 0 .003 29 7 288 0 21 22 0 .0016583123951777 .
013 .0025 19 8 1 0 1 16 0 23 0 V0 16 9 103 24 ?25 0 27 30 0 0 1 18 10 11 0 29 0
 26 28 5e-7 1 17 29 0 34 35 35 10 32 33 0 31 -18 26 9 0 32 10 21 39 5e-7 1 29 28
 292 0 10 39 22 .0016583123951777 .003 .0025 29 39 290 0 26 0 28 -.0016583123951
777 .003 .0025 29 22 287 0 36 28 7 -.0016583123951777 .013 .0025 18 36 6 0 40 21
 0 22 5e-7 1 17 40 0 38 37 37 36 41 45 0 43 +18 21 7 0 41 26 36 7 5e-7 1 17 41 0
 42 31 43 21 40 45 0 44 -15 42 106 0 43 15 0 17 31 0 42 32 41 10 44 47 0 50 +17
 43 0 42 41 32 36 49 46 0 48 +16 45 18 0 ?40 52 33 54 0 0 1 17 44 0 55 48 50 21
 31 47 0 37 -15 55 4 0 48 51 0 17 48 0 55 49 44 36 37 53 0 0 -17 50 0 55 44 49 1
0 35 56 0 0 +16 47 12 60 ?31 33 56 57 0 0 1 17 37 0 38 40 40 21 48 53 0 0 +15 38
 17 0 37 58 0 16 53 5 59 ?37 46 0 61 0 0 1 81 1 59 452 62 53 0 0 64 63 65 16 46
 8 66 ?43 56 53 70 0 0 1 133 61 451 0 53 68 67 0 +67 -.0016583123951777 .013 .00
25 .0016583123951777 .013 .0025 -.00082915619758885 .00248746859276655 30 68 293
 0 1 69 61 75 +.0016583123951777 .003 .0025 1 0 0 30 67 289 0 1 61 71 73 +-.0008
2915619758885 .013 .0025 1 0 0 31 71 306 0 72 67 74 0 +.0121243558336491 -.013 -
.00700000010430812 0 -1 0 -1 0 0 .0015 141 73 61 73 73 67 16 72 27 76 ?80 77 52
 71 0 0 1 31 74 313 0 78 71 79 0 +0 -.013 .0140000002086163 0 -1 0 -1 0 0 .0015
 16 78 36 82 ?85 84 77 74 0 0 1 31 79 320 0 81 74 83 0 +-.007 -.013 -.0121243556
529821 0 -1 0 -1 0 0 .0015 16 81 45 89 ?90 87 84 79 0 0 1 31 83 327 0 88 79 86 0
 +.014 -.013 666133814775094e-32 0 -1 0 -1 0 0 .0015 16 88 54 94 ?91 95 87 83 0
 0 1 31 86 334 0 93 83 92 0 +-.007 -.013 .0121243556529821 0 -1 0 -1 0 0 .0015 1
6 93 63 96 ?100 98 95 86 0 0 1 31 92 341 0 97 86 99 0 +-.0121243558336491 -.013
 -.00700000010430813 0 -1 0 -1 0 0 .0015 16 97 72 102 ?105 104 98 92 0 0 1 31 99
 303 0 52 92 101 0 +.0121243558336491 -.005 -.00700000010430812 0 -1 0 -1 0 0 .0
015 16 52 23 103 ?107 72 45 99 0 0 1 31 101 310 0 77 99 109 0 +0 -.005 .01400000
02086163 0 -1 0 -1 0 0 .0015 16 77 32 110 ?106 78 72 101 0 0 1 31 109 317 0 84 1
01 108 0 +-.007 -.005 -.0121243556529821 0 -1 0 -1 0 0 .0015 16 84 41 111 ?115 8
1 78 109 0 0 1 31 108 324 0 87 109 112 0 +.014 -.005 666133814775094e-32 0 -1 0
 -1 0 0 .0015 16 87 50 113 ?114 88 81 108 0 0 1 31 112 331 0 95 108 116 0 +-.007
 -.005 .0121243556529821 0 -1 0 -1 0 0 .0015 16 95 59 117 ?119 93 88 112 0 0 1 3
1 116 338 0 98 112 118 0 +-.0121243558336491 -.005 -.00700000010430813 0 -1 0 -1
 0 0 .0015 16 98 68 120 ?121 97 93 116 0 0 1 31 118 348 0 125 116 123 0 +0 -.005
 0 0 -1 0 1 0 0 .01 16 125 81 122 ?124 130 104 118 0 0 1 31 123 351 0 130 118 12
6 0 +0 -.005 0 0 -1 0 1 0 0 .019 16 130 84 128 ?127 27 125 123 0 0 1 31 126 354
 0 27 123 129 0 +0 -.04 0 0 -1 0 1 0 0 .019 16 27 95 131 ?135 9 130 126 0 0 1 31
 129 345 0 104 126 70 0 +0 0 0 0 1 0 1 0 0 .01 16 104 77 132 ?133 125 97 129 0 0
 1 133 70 537 0 46 129 134 0 +134 -.0016583123951777 .003 .0025 -.00165831239517
77 .013 .0025 .003 .013 30 134 291 0 1 70 137 140 +-.0016583123951777 0 .0025 0
 1 0 31 137 300 0 1 134 30 139 +0 .013 0 0 1 0 1 0 0 .003 141 140 70 140 140 134
 31 30 359 0 9 137 54 0 +0 0 0 0 1 0 1 0 0 .003 141 139 54 139 139 137 133 54 54
5 0 45 30 57 0 +137 .0016583123951777 .013 .0025 -.0016583123951777 .013 .0025 5
.29807452384184 10.40988874410712 133 57 547 0 47 54 136 0 +136 .001658312395177
7 .013 .0025 .0016583123951777 .003 .0025 -.013 -.003 30 136 294 0 1 57 19 138 +
.0016583123951777 0 .0025 0 -1 0 133 19 549 0 33 136 6 0 +6 .0016583123951777 .0
03 .0025 -.0016583123951777 .003 .0025 .985110783337746 2.15648187025205 141 138
 57 138 138 136 16 33 15 144 ?32 45 47 19 0 0 1 81 1 144 550 62 33 0 0 60 145 14
2 17 32 0 42 43 31 26 29 33 0 35 +17 35 0 34 29 29 26 50 56 0 49 -15 34 14 0 35
 143 0 16 56 10 141 ?50 47 46 69 0 0 1 17 49 0 55 50 48 26 43 46 0 0 -81 1 141 4
48 62 56 0 0 149 64 146 133 69 447 0 56 0 68 0 +68 -.0016583123951777 .003 .0025
 .0016583123951777 .003 .0025 -.0033166247903554 0 80 1 62 150 148 9000 0 0 0 0
 3 5 0 0 0 TTTFTFTTFFFFFFFFF3 81 1 149 445 62 51 0 147 151 141 155 81 1 64 449 6
2 143 0 153 141 59 152 84 3 146 15214 143 13 153 ?51 58 34 4 154 +0 0 51 58 23 8
1 3 153 450 157 143 64 0 147 160 159 156 158 84 3 152 26280 3 157 162 164 9000 0
 0 0 0 3 6 0 0 0 FFFFTFTTFFFFFFFFF1 1 3 81 3 147 446 157 51 149 0 0 153 165 161
 163 81 3 160 454 157 58 63 0 153 166 170 167 168 82 1 159 0 82 1 156 262 84 8 1
58 Adapter 14 58 16 160 ?143 169 38 4 171 +0 0 143 169 23 81 1 63 453 62 58 0 16
0 59 172 174 81 3 166 458 157 169 172 0 160 173 175 176 180 82 1 170 0 82 1 167
 263 84 8 168 Adapter 14 169 21 166 ?58 178 177 4 179 -0 0 58 178 23 81 1 172 45
7 62 169 0 166 63 76 185 81 3 173 462 157 178 181 0 166 183 182 184 186 82 1 175
 0 82 1 176 264 84 8 180 Adapter 14 178 28 173 ?169 190 187 4 5 +188 189 169 190
 23 81 1 181 461 62 178 0 173 76 192 195 81 3 183 466 157 190 192 0 173 194 191
 193 199 82 1 182 0 82 1 184 265 84 8 186 Adapter 14 190 30 183 ?178 189 200 4 1
97 -0 0 178 189 23 81 1 192 465 62 190 0 183 181 82 198 81 3 194 470 157 189 196
 0 183 204 201 205 203 82 1 191 0 82 1 193 266 84 8 199 Adapter 14 189 37 194 ?1
90 202 206 4 5 +178 210 190 202 23 81 1 196 469 62 189 0 194 82 208 207 81 3 204
 474 157 202 208 0 194 209 212 215 214 82 1 201 0 82 1 205 267 84 8 203 Adapter
 14 202 39 204 ?189 210 211 4 213 -0 0 189 210 23 81 1 208 473 62 202 0 204 196
 89 217 81 3 209 478 157 210 219 0 204 220 216 218 221 82 1 212 0 82 1 215 268 8
4 8 214 Adapter 14 210 46 209 ?202 225 222 4 5 +189 223 202 225 23 81 1 219 477
 62 210 0 209 89 224 226 81 3 220 482 157 225 224 0 209 227 229 228 230 82 1 216
 0 82 1 218 269 84 8 221 Adapter 14 225 48 220 ?210 17 231 4 235 -0 0 210 17 23
 81 1 224 481 62 225 0 220 219 94 233 81 3 227 486 157 17 232 0 220 234 240 236
 238 82 1 229 0 82 1 228 270 84 8 230 Adapter 14 17 55 227 ?225 237 239 4 5 +223
 188 225 237 23 81 1 232 485 62 17 0 227 94 241 245 81 3 234 490 157 237 241 0 2
27 242 243 244 247 82 1 240 0 82 1 236 271 84 8 238 Adapter 14 237 57 234 ?17 18
8 250 4 249 -0 0 17 188 23 81 1 241 489 62 237 0 234 232 96 246 81 3 242 494 157
 188 248 0 234 254 255 252 253 82 1 243 0 82 1 244 272 84 8 247 Adapter 14 188 6
4 242 ?237 251 259 4 5 +17 178 237 251 23 81 1 248 493 62 188 0 242 96 256 260 8
1 3 254 498 157 251 256 0 242 258 257 261 265 82 1 255 0 82 1 252 273 84 8 253 A
dapter 14 251 66 254 ?188 223 263 4 262 -0 0 188 223 23 81 1 256 497 62 251 0 25
4 248 102 264 81 3 258 502 157 223 267 0 254 270 269 266 268 82 1 257 0 82 1 261
 274 84 8 265 Adapter 14 223 73 258 ?251 272 274 4 5 +210 17 251 272 23 81 1 267
 501 62 223 0 258 102 275 271 81 3 270 506 157 272 275 0 258 273 276 280 277 82
 1 269 0 82 1 266 275 84 8 268 Adapter 14 272 75 270 ?223 278 279 4 281 +0 0 223
 278 23 81 1 275 505 62 272 0 270 267 103 282 81 3 273 522 157 278 284 0 270 283
 285 286 290 82 1 276 0 82 1 280 276 84 8 277 Adapter 14 278 82 273 ?272 288 287
 4 289 +0 0 272 288 23 81 1 284 521 62 278 0 273 122 128 295 81 3 283 528 157 28
8 291 0 273 293 292 294 296 82 1 285 0 82 1 286 277 84 8 290 Adapter 14 288 93 2
83 ?278 300 297 4 298 +0 0 278 300 23 81 1 291 527 62 288 0 283 128 131 299 81 3
 293 532 157 300 302 0 283 305 304 301 303 82 1 292 0 82 1 294 278 84 8 296 Adap
ter 14 300 98 293 ?288 309 310 4 307 -0 0 288 309 23 81 1 302 531 62 300 0 293 1
31 132 308 81 3 305 536 157 309 306 0 293 314 311 315 313 82 1 304 0 82 1 301 27
9 84 8 303 Adapter 14 309 100 305 ?300 15 312 4 316 +0 0 300 15 23 81 1 306 535
 62 309 0 305 132 66 320 81 3 314 552 157 15 145 0 305 0 318 317 319 82 1 311 0
 82 1 315 280 84 8 313 Adapter 14 15 105 314 ?309 0 322 4 18 +0 0 309 0 23 81 1
 145 551 62 15 0 314 144 0 325 82 1 318 0 82 1 317 281 84 8 319 Adapter 84 3 325
 28115 322 611 0 25 15 42 51 18 360 0 15 316 5 0 +0 0 0 0 1 0 .003 1 0 0 13 23 2
 0 0 0 0 0 0 8 15 50 316 357 0 309 307 18 0 +0 0 0 0 1 0 1 0 0 50 307 356 0 300
 298 316 0 +0 -.04 0 0 1 0 1 0 0 51 298 352 0 288 289 307 0 +0 0 0 0 -1 0 .019 1
 0 0 50 289 349 0 278 281 298 0 +0 -.005 0 0 1 0 1 0 0 51 281 343 0 272 262 289
 0 +0 0 0 0 -1 0 .01 1 0 0 51 262 336 0 251 249 281 0 +-.0121243558336491 -.005
 -.00700000010430813 0 -1 0 .0015 -1 0 0 51 249 329 0 237 235 262 0 +-.007 -.005
 .0121243556529821 0 -1 0 .0015 -1 0 0 51 235 322 0 225 213 249 0 +.014 -.005 66
6133814775094e-32 0 -1 0 .0015 -1 0 0 51 213 315 0 202 197 235 0 +-.007 -.005 -.
0121243556529821 0 -1 0 .0015 -1 0 0 51 197 308 0 190 179 213 0 +0 -.005 .014000
0002086163 0 -1 0 .0015 -1 0 0 51 179 301 0 169 171 197 0 +.0121243558336491 -.0
05 -.00700000010430812 0 -1 0 .0015 -1 0 0 50 171 297 0 58 154 179 0 +0 .013 0 0
 1 0 1 0 0 50 154 295 0 143 324 171 0 +0 .003 .00275 0 1 0 -1 0 0 50 324 286 0 5
1 0 154 0 +-.0016583123951777 .013 .0025 0 0 -1 1 0 0 14 51 3 147 ?0 143 55 4 32
4 -0 0 0 143 23 17 25 0 322 25 25 0 321 9 0 0 +17 321 0 312 321 321 0 25 9 0 0 -
15 312 102 0 321 309 323 15 323 101 0 133 309 0 17 133 0 323 133 133 0 327 104 0
 0 +17 327 0 329 327 327 0 133 104 0 0 -15 329 76 0 327 272 0 81 1 132 534 62 10
4 0 0 302 306 330 81 1 66 538 62 46 0 0 306 24 326 84 3 320 28081 1 24 544 62 9
 0 0 66 60 328 84 3 326 15181 1 60 548 62 47 0 0 24 144 331 84 3 328 18184 3 331
 15384 3 330 17581 1 131 530 62 27 0 0 291 302 335 84 3 308 27984 3 335 17915 31
0 99 0 135 300 0 17 135 0 310 135 135 0 332 27 0 0 +17 332 0 333 332 332 0 135 2
7 0 0 -15 333 94 0 332 288 0 81 1 128 526 62 130 0 0 284 291 334 84 3 299 27884
 3 334 17815 297 612 0 127 288 333 17 127 0 297 127 127 0 336 130 0 0 +17 336 0
 337 336 336 0 127 130 0 0 -15 337 83 0 336 278 0 81 1 122 520 62 125 0 0 120 28
4 339 84 3 295 27781 1 120 518 62 98 0 0 117 122 338 84 3 339 17781 1 117 516 62
 95 0 0 113 120 340 84 3 338 17281 1 113 514 62 87 0 0 111 117 341 84 3 340 1698
1 1 111 512 62 84 0 0 110 113 345 84 3 341 16681 1 110 510 62 77 0 0 103 111 343
 84 3 345 16381 1 103 508 62 52 0 0 275 110 342 84 3 343 16084 3 342 15715 287 9
2 0 124 278 344 17 124 0 287 124 124 0 350 125 0 0 +15 344 91 0 121 278 346 17 1
21 0 344 121 121 0 348 98 0 0 +15 346 90 0 119 278 347 17 119 0 346 119 119 0 34
9 95 0 0 +15 347 89 0 114 278 351 17 114 0 347 114 114 0 355 87 0 0 +15 351 88 0
 115 278 352 17 115 0 351 115 115 0 353 84 0 0 +15 352 87 0 106 278 354 17 106 0
 352 106 106 0 357 77 0 0 +15 354 86 0 107 278 337 17 107 0 354 107 107 0 360 52
 0 0 +17 360 0 359 360 360 0 107 52 0 0 -15 359 22 0 360 169 0 17 357 0 356 357
 357 0 106 77 0 0 -15 356 31 0 357 190 0 17 353 0 358 353 353 0 115 84 0 0 -15 3
58 40 0 353 202 0 17 355 0 364 355 355 0 114 87 0 0 -15 364 49 0 355 225 0 17 34
9 0 365 349 349 0 119 95 0 0 -15 365 58 0 349 237 0 17 348 0 362 348 348 0 121 9
8 0 0 -15 362 67 0 348 251 0 17 350 0 279 350 350 0 124 125 0 0 -15 279 604 0 35
0 272 329 84 3 282 27681 1 102 500 62 97 0 0 256 267 363 84 3 271 27584 3 363 17
415 274 74 0 361 223 0 17 361 0 274 361 361 0 105 97 0 0 -17 105 0 263 105 105 0
 361 97 0 0 +15 263 605 0 105 251 362 84 3 264 27481 1 96 492 62 93 0 0 241 248
 369 84 3 260 27384 3 369 17115 259 65 0 366 188 0 17 366 0 259 366 366 0 100 93
 0 0 -17 100 0 250 100 100 0 366 93 0 0 +15 250 606 0 100 237 365 84 3 246 27281
 1 94 484 62 88 0 0 224 232 370 84 3 245 27184 3 370 16815 239 56 0 368 17 0 17
 368 0 239 368 368 0 91 88 0 0 -17 91 0 231 91 91 0 368 88 0 0 +15 231 607 0 91
 225 364 84 3 233 27081 1 89 476 62 81 0 0 208 219 367 84 3 226 26984 3 367 1651
5 222 47 0 371 210 0 17 371 0 222 371 371 0 90 81 0 0 -17 90 0 211 90 90 0 371 8
1 0 0 +15 211 608 0 90 202 358 84 3 217 26881 1 82 468 62 78 0 0 192 196 375 84
 3 207 26784 3 375 16215 206 38 0 373 189 0 17 373 0 206 373 373 0 85 78 0 0 -17
 85 0 200 85 85 0 373 78 0 0 +15 200 609 0 85 190 356 84 3 198 26681 1 76 460 62
 72 0 0 172 181 372 84 3 195 26584 3 372 15915 187 29 0 374 178 0 17 374 0 187 3
74 374 0 80 72 0 0 -17 80 0 177 80 80 0 374 72 0 0 +15 177 610 0 80 169 359 84 3
 185 26484 3 174 26382 1 165 0 82 1 161 261 84 8 163 Adapter 79 27 164 MONIKER/M
ONIKER_DATA_ATTRIB81 1 151 439 62 1 377 380 0 149 379 84 3 155 26181 1 377 438 3
76 1 0 151 0 0 378 81 1 380 440 382 1 151 384 0 0 385 84 2 379 1480 1 382 381 38
3 9000 0 0 0 0 3 5 0 0 0 TFTFTFTFFFFFFFFFF10 81 1 384 441 386 1 380 390 0 0 387
 98 5 385 66 111 100 121 49 80 1 386 388 389 9000 0 0 0 0 3 5 0 0 0 TFTFTFTFFFFF
FFFFF3 81 1 390 442 391 1 384 392 0 0 394 84 5 387 Body180 1 391 393 395 8017 0
 0 0 0 0 0 0 0 0 TTTTTTTTTTTTTFTFT3 81 1 392 443 396 1 390 400 0 0 398 84 17 394
 e38s6g5 600b g24n80 1 396 391 397 8038 0 0 0 0 0 0 0 0 0 TTTTTTTTTTTTTFTFT10 81
 1 400 444 399 1 392 405 0 0 401 98 17 398 101 51 56 115 54 103 53 32 54 48 48 9
8 32 103 50 52 110 80 1 399 403 402 8040 0 0 0 0 3 5 0 0 0 TTTFFFFFFFFFFFFFF2 81
 1 405 613 404 1 400 406 0 0 410 83 3 401 .627450980392157 .627450980392157 .627
450980392157 80 1 404 407 408 8051 0 0 0 0 3 5 0 0 0 TFTFFFFFFFFFFFFFF1 81 5 406
 614 409 1 405 12 0 0 412 415 414 0 0 82 1 410 0 80 5 409 411 413 9000 0 0 0 0 3
 5 0 0 419 TFTFFFFFFFFFFFFFF3 3 3 3 3 81 1 12 615 420 1 406 2 0 0 417 84 1 412 ?
84 17 415 e38s6g5 600b g24n84 7 414 Unknown80 1 420 418 416 9000 0 0 0 0 3 5 0 0
 0 TTTFFFFFFFFFFFFFF1 82 1 417 0 79 23 416 ONSHAPE_ORIGINALBODY_ID79 19 413 Inte
rop/Application99 5 419 424 421 425 423 422 84 11 424 Application84 9 421 Part N
ame84 11 425 Part Number84 5 423 Label84 7 422 Version79 21 408 SDL/TYSA_SCALE_F
ACTOR79 17 402 SDL/TYSA_COLOUR_279 14 397 SDL/TYSA_UNAME79 13 395 SDL/TYSA_NAME7
9 22 389 ATTRIB_XPARASOLID_NAME79 23 383 ATTRIB_XPARASOLID_UNAME80 1 376 426 430
 9000 0 0 0 0 3 5 0 0 428 TFTFFFFFFFFFFFFFF10 98 17 378 101 51 56 115 54 103 53
 32 54 48 48 98 32 103 50 52 110 79 11 430 Part Number99 1 428 427 84 11 427 Par
t Number79 18 148 ATTRIB_XGENERIC_ID84 3 142 154141 75 69 75 75 68 84 3 65 15019
 16 108 0 1 0 8 4 0 S0 141 20 19 20 20 6 74 20 14 12 0 0 377 145 380 384 390 392
 400 314 405 406 12 2 0 0 0 0 0 0 0 0 80 1 11 420 429 9000 0 0 0 0 3 5 0 0 0 TTT
FFFFFFFFFFFFFF10 98 29 13 54 97 48 101 55 54 53 97 97 51 54 51 99 99 99 54 51 52
 49 56 102 98 48 50 46 115 116 101 112 79 16 429 ONSHAPE_FILENAME1 0 
